<?xml version="1.0" standalone="no"?>
<!DOCTYPE svg PUBLIC "-//W3C//DTD SVG 20010904//EN"
 "http://www.w3.org/TR/2001/REC-SVG-20010904/DTD/svg10.dtd">
<svg version="1.0" xmlns="http://www.w3.org/2000/svg"
 width="700.000000pt" height="700.000000pt" viewBox="0 0 700.000000 700.000000"
 preserveAspectRatio="xMidYMid meet">
<g transform="translate(0.000000,700.000000) scale(0.100000,-0.100000)"
fill="#000000" stroke="none">
<path d="M5900 5800 c-47 -11 -98 -21 -115 -24 -16 -3 -176 -34 -355 -70 -179
-35 -338 -67 -355 -69 -16 -3 -66 -13 -110 -22 -44 -9 -91 -18 -105 -21 -14
-2 -55 -11 -92 -19 -36 -8 -83 -18 -105 -21 -21 -3 -92 -17 -158 -30 -66 -14
-131 -27 -145 -29 -14 -3 -36 -7 -50 -10 -14 -3 -59 -12 -100 -20 -41 -8 -86
-17 -100 -20 -14 -3 -38 -8 -55 -11 -16 -3 -61 -11 -100 -19 -38 -8 -83 -17
-100 -19 -16 -3 -95 -19 -175 -35 -80 -17 -158 -32 -175 -35 -16 -3 -97 -19
-180 -36 -82 -17 -163 -33 -180 -36 -78 -13 -280 -56 -285 -61 -3 -2 -6 -109
-6 -236 -1 -128 -2 -237 -3 -243 -1 -8 -34 -12 -98 -12 -54 0 -105 -1 -114 -1
-12 -1 -15 -14 -13 -73 3 -111 13 -103 -133 -103 l-128 0 -1 -160 c-1 -88 -2
-166 -3 -172 -1 -11 -22 -12 -73 -4 -4 0 -6 17 -4 37 2 33 0 35 -21 31 -22 -4
-23 -2 -24 72 -1 42 -1 85 0 96 2 18 -4 20 -56 20 -71 -1 -82 -7 -79 -43 3
-22 9 -28 35 -30 31 -3 31 -4 31 -58 0 -53 0 -54 -30 -54 -30 0 -32 -3 -33
-57 -1 -19 -6 -22 -42 -21 l-41 0 0 165 c1 91 -1 168 -4 172 -7 10 -350 9
-350 -1 -1 -4 -1 -91 -1 -193 0 -102 0 -196 1 -210 l0 -25 178 0 177 0 -1
-170 c-1 -116 3 -170 10 -171 6 -1 83 -2 171 -2 l159 -2 1 -40 0 -40 -130 0
-130 0 0 -120 c-1 -66 0 -125 2 -130 2 -7 50 -10 124 -10 128 1 129 0 134 -48
4 -35 5 -37 13 -36 44 7 52 -1 52 -51 0 -49 -1 -50 -30 -50 -16 0 -30 -3 -31
-7 -1 -5 -2 -21 -3 -38 l-1 -30 88 0 c63 0 87 3 88 12 5 52 3 58 -19 61 -16 3
-22 11 -23 30 -2 33 2 66 7 71 2 2 69 4 149 3 104 0 145 3 146 11 1 7 1 26 1
44 0 26 3 31 19 28 10 -2 22 -6 27 -9 6 -3 8 -83 3 -143 -1 -10 -31 -13 -114
-13 l-112 0 0 -127 0 -128 -82 -3 -83 -3 0 41 c0 25 -5 40 -12 41 -7 0 -105 1
-217 1 -182 1 -204 2 -208 17 -3 13 -12 16 -34 13 -16 -2 -29 0 -30 4 0 5 -2
77 -2 159 l-2 150 -95 0 -95 0 -1 -62 -1 -63 49 0 48 0 0 -96 0 -96 -28 2
c-67 5 -67 5 -68 -60 0 -63 1 -64 53 -62 13 1 24 -3 24 -8 1 -6 3 -14 4 -20 1
-5 3 -17 4 -25 1 -11 9 -14 31 -10 l30 5 0 -58 c0 -55 -2 -59 -23 -59 -43 -1
-45 -3 -42 -38 l2 -35 -89 0 -88 0 -1 -27 c0 -16 0 -114 1 -219 l0 -191 -32 2
c-18 1 -37 0 -43 -2 -6 -2 -10 -66 -10 -166 l1 -162 32 -3 c18 -2 32 -7 32
-11 0 -23 -32 -81 -45 -81 -17 0 -17 1 -20 -110 -2 -47 -3 -93 -4 -102 -1 -13
-10 -18 -31 -18 l-29 0 -3 156 -3 156 -92 1 c-55 1 -94 -2 -96 -8 -2 -5 -2
-27 -1 -48 2 -28 -2 -40 -16 -47 -26 -14 -30 -4 -28 87 0 44 -2 84 -5 89 -3 5
-32 9 -64 9 l-58 -1 -3 -36 c-3 -35 -1 -37 30 -40 31 -3 32 -4 33 -51 2 -52
-1 -56 -39 -59 -23 -2 -26 -7 -26 -38 l0 -36 88 0 87 1 -1 32 c0 25 3 30 15
24 9 -5 31 -7 49 -5 34 3 34 4 34 -76 0 -16 -1 -48 -1 -70 l-1 -40 -44 0 c-26
0 -46 -5 -48 -12 -3 -11 -2 -241 1 -271 1 -4 58 -6 129 -5 l127 3 1 70 c1 39
2 95 3 125 l2 55 15 -54 c21 -80 47 -122 121 -197 161 -162 451 -219 758 -150
35 7 177 62 240 92 210 98 378 292 424 489 6 28 14 61 17 75 4 14 7 503 8
1087 0 584 3 1064 6 1067 5 4 59 16 295 62 11 2 45 9 75 15 30 7 64 13 75 15
32 5 77 14 125 24 25 6 115 23 200 39 85 17 166 32 180 34 14 3 72 15 130 26
125 25 114 23 310 61 85 16 166 32 180 35 14 3 48 9 75 15 28 5 61 12 75 15
14 3 97 19 185 35 88 17 194 38 235 46 41 9 86 18 100 20 14 3 83 16 154 30
70 14 130 23 132 21 3 -3 6 -1449 4 -1796 0 -28 -3 -32 -17 -26 -70 30 -216
55 -318 55 -128 -1 -145 -3 -245 -29 -260 -67 -486 -225 -603 -422 -69 -118
-100 -277 -76 -391 25 -116 117 -241 222 -303 66 -38 174 -81 228 -90 24 -4
53 -9 64 -12 33 -6 206 -6 255 1 127 19 325 90 446 161 122 71 231 193 294
330 74 158 69 15 70 2033 l0 1812 -22 -1 c-13 -1 -61 -9 -108 -19z m-2538
-767 c2 -38 2 -91 0 -119 l-3 -52 -119 1 -119 0 0 119 0 118 119 0 118 0 4
-67z m607 -211 c5 -8 7 -286 2 -339 -1 -10 -45 -13 -184 -13 l-183 0 0 180 c0
150 2 180 15 182 41 8 344 0 350 -10z m-1163 -242 c0 -27 -4 -50 -8 -51 -5 -1
-30 -2 -58 -3 l-50 -1 0 53 0 52 58 0 58 0 0 -50z m304 -240 c0 -139 -1 -136
53 -131 14 2 17 -6 17 -52 l0 -54 -137 1 -138 1 -3 51 -3 52 44 -1 c24 0 48 2
53 6 5 3 9 38 9 79 l-1 73 -52 3 -52 3 0 50 0 49 105 0 105 0 0 -130z m-258
82 c3 -14 2 -413 -1 -478 -1 -20 -6 -21 -98 -20 l-98 1 -1 77 c-2 88 -2 88 83
87 28 -1 55 1 60 4 4 3 7 81 7 174 -1 104 3 170 9 175 15 9 34 -1 39 -20z
m-931 -24 c3 -36 4 -164 1 -174 -1 -6 -33 -10 -80 -10 l-76 1 -1 98 -2 97 79
0 c55 0 78 -4 79 -12z m756 -90 l2 -98 -98 0 -98 0 -1 92 c-1 50 1 94 3 98 2
3 46 6 97 6 l93 -1 2 -97z m-341 -335 l-1 -98 -95 0 -95 0 -3 98 -3 97 99 0
99 0 -1 -97z m220 -8 l0 -95 -48 0 -48 0 0 95 0 95 48 0 48 0 0 -95z m250
-162 l1 -43 -43 0 -44 0 0 46 0 45 43 -3 42 -3 1 -42z m-137 -162 c10 -1 13
-191 3 -192 -10 -1 -153 -1 -174 0 -15 1 -17 13 -16 94 0 50 4 94 8 97 7 4
147 5 179 1z m-382 -107 l-1 -54 -53 0 -53 0 0 54 c0 60 7 65 76 58 31 -4 31
-5 31 -58z m518 -424 l0 -55 -55 0 -55 0 -3 56 -3 56 58 -1 58 -1 0 -55z m50
-220 l0 -85 -30 -2 c-66 -6 -70 -1 -68 82 1 41 2 80 2 86 1 6 20 9 48 7 l48
-3 0 -85z m185 5 c0 -63 3 -85 13 -84 30 4 37 -3 37 -35 l0 -33 -93 -2 -94 -2
3 28 c1 15 2 31 3 36 1 4 14 7 30 7 25 0 29 4 33 33 6 54 0 67 -33 67 -28 0
-31 4 -31 35 0 8 0 20 1 25 0 6 30 10 66 10 l65 0 0 -85z m-1019 58 c1 -10 2
-50 3 -89 1 -68 0 -72 -21 -70 -13 0 -23 8 -24 16 -5 88 -2 151 6 154 22 9 35
5 36 -11z m315 -105 l1 -98 -98 0 -99 0 0 93 c0 52 2 96 5 99 3 2 46 4 97 4
l93 -1 1 -97z m209 9 c2 -53 -7 -64 -50 -63 -28 1 -30 4 -33 45 -5 61 1 69 44
67 l38 -1 1 -48z m145 -3 c0 -53 0 -54 -30 -54 -17 0 -31 6 -31 13 -3 31 -5
82 -3 87 1 3 16 6 33 6 31 2 31 2 31 -52z m-65 -211 c-1 -43 0 -83 2 -89 3 -7
42 -11 109 -11 57 0 107 -3 111 -7 8 -8 10 -154 3 -167 -4 -5 -20 -4 -41 2
-102 32 -204 46 -317 44 -119 -3 -176 -9 -220 -26 -14 -5 -26 -8 -29 -6 -2 2
-4 38 -4 80 -1 51 -5 77 -12 78 -45 3 -105 1 -114 -4 -9 -6 -10 -25 -4 -59 0
-5 15 -8 31 -8 30 0 30 -1 30 -55 0 -58 -3 -61 -54 -55 -10 1 -16 -2 -13 -7 8
-13 -4 -26 -44 -44 l-35 -17 0 167 0 166 216 0 215 0 3 48 3 47 82 0 82 0 0
-77z m180 35 c0 -24 -3 -47 -7 -53 -3 -5 -28 -10 -55 -9 l-48 1 -3 51 -3 52
58 0 59 0 -1 -42z m-889 -180 c0 -73 -2 -88 -15 -89 -117 -4 -141 -3 -142 6
-6 47 -2 161 6 167 5 4 42 6 80 5 l70 -2 1 -87z m78 -217 c7 -1 -139 -101
-147 -101 -2 0 0 89 2 100 1 4 105 5 145 1z m-229 -121 l-2 -55 -49 0 -49 0
-1 50 c0 55 6 60 70 60 l32 1 -1 -56z m860 -76 l0 -118 -115 0 -115 0 -1 74
c-1 41 0 63 3 48 2 -16 7 -28 11 -29 4 0 28 -1 55 -2 l47 -2 0 56 0 55 -54 2
c-52 1 -55 0 -59 -26 -3 -19 -4 -15 -6 14 0 22 1 43 3 45 2 2 55 4 118 3 l113
-1 0 -119z m-262 -183 c4 0 7 -59 7 -131 l0 -130 35 0 34 0 -3 -52 -3 -53
-136 -3 -137 -3 0 51 c0 54 0 53 63 51 20 -1 37 2 38 6 1 12 1 125 0 146 -1
14 -8 18 -33 17 -68 -4 -68 -4 -68 48 0 27 2 51 4 53 4 3 176 4 199 0z m-855
-442 l3 -45 -51 0 c-27 0 -51 5 -52 11 -3 24 -4 70 -2 76 2 3 25 5 51 4 l48
-1 3 -45z"/>
<path d="M3180 4955 l0 -55 55 0 55 0 0 55 0 55 -55 0 -55 0 0 -55z"/>
<path d="M3685 4692 c-3 -3 -5 -41 -5 -84 l0 -78 84 0 84 0 4 63 c6 111 8 108
-82 106 -44 -1 -82 -4 -85 -7z"/>
<path d="M2626 5113 c1 -16 2 -34 3 -41 1 -8 11 -11 31 -7 l30 5 0 -60 c0 -58
-1 -60 -23 -56 -33 6 -45 -4 -43 -39 l2 -30 87 -3 c48 -1 87 1 88 5 0 4 2 18
3 31 2 12 -3 27 -11 33 -7 6 -13 8 -13 4 0 -4 -6 -3 -12 3 -9 7 -12 38 -11 96
l1 86 -67 0 -68 0 3 -27z"/>
<path d="M1329 4873 c-1 -5 -2 -32 -3 -61 -1 -56 -2 -56 62 -54 l32 2 0 -95 0
-94 -47 -3 -47 -3 0 -60 0 -60 120 -1 c65 0 124 1 130 3 7 2 11 28 10 64 l0
59 -33 0 -33 0 0 155 0 155 -95 0 c-52 0 -95 -3 -96 -7z"/>
<path d="M1846 4853 c1 -16 2 -33 3 -39 0 -6 14 -9 32 -6 l30 4 -3 -58 c-3
-53 -5 -59 -25 -60 -13 -1 -27 -2 -31 -3 -5 0 -8 -16 -7 -33 l2 -33 85 -3 86
-3 4 30 c6 38 -3 54 -25 45 -18 -6 -18 -7 -19 139 l0 47 -67 0 c-67 0 -67 0
-65 -27z"/>
<path d="M1154 3921 c-2 -2 -4 -19 -4 -38 0 -31 2 -33 33 -33 l32 0 0 -55 0
-55 -32 0 c-32 0 -33 -2 -33 -40 0 -39 0 -40 38 -37 l37 2 5 -171 5 -172 215
2 215 1 3 217 2 218 -192 2 -193 3 -2 73 c-1 41 -4 76 -8 80 -7 7 -114 10
-121 3z m383 -285 c9 -9 11 -157 2 -176 -6 -12 -25 -15 -96 -14 -48 1 -90 3
-93 3 -7 1 -5 175 2 187 7 11 174 11 185 0z"/>
<path d="M534 3698 l1 -63 45 0 45 0 3 -92 3 -93 -28 -1 c-72 -3 -68 1 -68
-64 l0 -60 128 -2 127 -2 1 29 c1 17 1 41 1 55 0 43 -1 45 -31 41 -17 -2 -32
2 -33 8 -2 6 -3 77 -3 159 l2 147 -98 0 -97 0 2 -62z"/>
<path d="M998 3062 c-27 -3 -28 -5 -28 -63 l0 -59 33 -1 c17 -1 39 -1 48 0 14
2 16 -12 15 -94 l0 -95 -48 0 -48 0 0 -60 c0 -33 3 -61 8 -61 4 -1 62 -2 130
-3 l122 -2 0 63 0 63 -33 0 -33 0 1 151 c0 84 -3 153 -9 156 -10 7 -116 10
-158 5z"/>
<path d="M1326 2853 l0 -128 130 0 129 0 0 125 0 125 -130 3 -130 3 1 -128z
m182 -1 l-3 -57 -50 0 -50 0 -2 45 c-1 25 -1 50 1 55 2 6 27 11 55 12 l52 1
-3 -56z"/>
<path d="M533 2225 l2 -60 48 -3 47 -3 0 -95 0 -94 -49 0 -49 0 0 -62 0 -63
122 1 c66 1 126 2 131 3 9 1 10 17 6 103 -1 11 -11 18 -33 20 l-32 3 0 153 c0
99 -4 152 -11 153 -5 0 -49 2 -97 2 l-86 2 1 -60z"/>
</g>
</svg>
