<?xml version="1.0" encoding="UTF-8"?>
<svg width="24px" height="24px" viewBox="0 0 24 24" version="1.1" xmlns="http://www.w3.org/2000/svg" xmlns:xlink="http://www.w3.org/1999/xlink">
    <!-- Generator: Sketch 58 (84663) - https://sketch.com -->
    <title>file_pdf</title>
    <desc>Created with Sketch.</desc>
    <defs>
        <path d="M18.5,9 L13,3.5 L13,9 L18.5,9 Z M14,2 L20,8 L20,20 C20,21.1045695 19.1045695,22 18,22 L6,22 C4.89,22 4,21.1 4,20 L4,4 C4,2.89 4.89,2 6,2 L14,2 Z M12.875,15 L11,15 L11,20 L12.875,20 L12.9900247,19.9935464 C13.5194936,19.9338014 13.9404213,19.466104 13.9941918,18.8778052 L14,18.75 L14,16.25 L13.9941918,16.1221948 C13.9365805,15.4918747 13.4574878,15 12.875,15 Z M8.875,15 L7,15 L7,20 L8.125,20 L8.125,18.3333333 L8.875,18.3333333 L8.99002471,18.3268797 C9.5194936,18.2671347 9.94042126,17.7994373 9.99419175,17.2111386 L10,17.0833333 L10,16.25 L9.99419175,16.1221948 C9.93658051,15.4918747 9.45748782,15 8.875,15 Z M18,15 L15,15 L15,20 L16.5,20 L16.5,18.3333333 L18,18.3333333 L18,17.0833333 L16.5,17.0833333 L16.5,16.25 L18,16.25 L18,15 Z M12.875,16.25 L12.875,18.75 L12.125,18.75 L12.125,16.25 L12.875,16.25 Z M8.875,16.25 L8.875,17.0833333 L8.125,17.0833333 L8.125,16.25 L8.875,16.25 Z" id="path-1"></path>
        <rect id="path-3" x="0" y="0" width="50" height="50"></rect>
    </defs>
    <g id="file_pdf" stroke="none" stroke-width="1" fill="none" fill-rule="evenodd">
        <mask id="mask-2" fill="white">
            <use xlink:href="#path-1"></use>
        </mask>
        <g id="Mask" fill-rule="nonzero"></g>
        <g id="Colors/Black" mask="url(#mask-2)">
            <g transform="translate(-13.000000, -13.000000)">
                <mask id="mask-4" fill="white">
                    <use xlink:href="#path-3"></use>
                </mask>
                <use id="Black" stroke="none" fill="#000000" fill-rule="evenodd" xlink:href="#path-3"></use>
            </g>
        </g>
    </g>
</svg>