<?xml version="1.0" encoding="UTF-8"?>
<svg width="24px" height="24px" viewBox="0 0 24 24" version="1.1" xmlns="http://www.w3.org/2000/svg" xmlns:xlink="http://www.w3.org/1999/xlink">
    <!-- Generator: Sketch 58 (84663) - https://sketch.com -->
    <title>file_music</title>
    <desc>Created with Sketch.</desc>
    <defs>
        <path d="M18.5,9 L13,3.5 L13,9 L18.5,9 Z M14,2 L20,8 L20,20 C20,21.1045695 19.1045695,22 18,22 L6,22 C4.89,22 4,21.1 4,20 L4,4 C4,2.89 4.89,2 6,2 L14,2 Z M9,16 C7.8954305,16 7,16.8954305 7,18 C7,19.1045695 7.8954305,20 9,20 C10.1045695,20 11,19.1045695 11,18 L11,13 L14,13 L14,11 L10,11 L10,16.27 C9.71,16.1 9.36,16 9,16 Z" id="path-1"></path>
        <rect id="path-3" x="0" y="0" width="50" height="50"></rect>
    </defs>
    <g id="file_music" stroke="none" stroke-width="1" fill="none" fill-rule="evenodd">
        <mask id="mask-2" fill="white">
            <use xlink:href="#path-1"></use>
        </mask>
        <use id="Mask" fill="#000000" fill-rule="nonzero" xlink:href="#path-1"></use>
        <g id="Colors/Black" mask="url(#mask-2)">
            <g transform="translate(-13.000000, -13.000000)">
                <mask id="mask-4" fill="white">
                    <use xlink:href="#path-3"></use>
                </mask>
                <use id="Black" stroke="none" fill="#000000" fill-rule="evenodd" xlink:href="#path-3"></use>
            </g>
        </g>
    </g>
</svg>