<svg id="Layer_1" data-name="Layer 1" xmlns="http://www.w3.org/2000/svg" xmlns:xlink="http://www.w3.org/1999/xlink" viewBox="0 0 152.9 28.22"><defs><style>.cls-1{fill:url(#linear-gradient);}.cls-2{fill:url(#linear-gradient-2);}.cls-3{fill:url(#linear-gradient-3);}.cls-4{fill:url(#linear-gradient-4);}.cls-5{fill:url(#linear-gradient-5);}.cls-6{fill:url(#linear-gradient-6);}.cls-7{fill:url(#linear-gradient-7);}.cls-8{fill:url(#linear-gradient-8);}.cls-9{fill:url(#linear-gradient-9);}.cls-10{fill:url(#linear-gradient-10);}.cls-11{fill:url(#linear-gradient-11);}.cls-12{fill:url(#linear-gradient-12);}.cls-13{fill:url(#linear-gradient-13);}.cls-14{fill:url(#linear-gradient-14);}.cls-15{fill:url(#linear-gradient-15);}.cls-16{fill:url(#linear-gradient-16);}.cls-17{fill:url(#linear-gradient-17);}.cls-18{fill:url(#linear-gradient-18);}.cls-19{fill:url(#linear-gradient-19);}.cls-20{fill:url(#linear-gradient-20);}.cls-21{fill:url(#linear-gradient-21);}.cls-22{fill:url(#linear-gradient-22);}.cls-23{fill:url(#linear-gradient-23);}.cls-24{fill:url(#linear-gradient-24);}.cls-25{fill:url(#linear-gradient-25);}.cls-26{fill:url(#linear-gradient-26);}.cls-27{fill:url(#linear-gradient-27);}.cls-28{fill:url(#linear-gradient-28);}.cls-29{fill:url(#linear-gradient-29);}.cls-30{fill:url(#linear-gradient-30);}.cls-31{fill:url(#linear-gradient-31);}.cls-32{fill:url(#linear-gradient-32);}.cls-33{fill:url(#linear-gradient-33);}.cls-34{fill:url(#linear-gradient-34);}.cls-35{fill:url(#linear-gradient-35);}.cls-36{fill:url(#linear-gradient-36);}.cls-37{fill:url(#linear-gradient-37);}.cls-38{fill:url(#linear-gradient-38);}.cls-39{fill:url(#linear-gradient-39);}.cls-40{fill:url(#linear-gradient-40);}.cls-41{fill:url(#linear-gradient-41);}.cls-42{fill:url(#linear-gradient-42);}.cls-43{fill:url(#linear-gradient-43);}.cls-44{fill:url(#linear-gradient-44);}.cls-45{fill:url(#linear-gradient-45);}.cls-46{fill:url(#linear-gradient-46);}</style><linearGradient id="linear-gradient" x1="48.32" y1="2.39" x2="48.32" y2="26.25" gradientUnits="userSpaceOnUse"><stop offset="0" stop-color="#4d4d4d"/><stop offset="1" stop-color="#333"/></linearGradient><linearGradient id="linear-gradient-2" x1="65.09" y1="2.39" x2="65.09" y2="26.25" xlink:href="#linear-gradient"/><linearGradient id="linear-gradient-3" x1="84.05" y1="2.39" x2="84.05" y2="26.25" xlink:href="#linear-gradient"/><linearGradient id="linear-gradient-4" x1="107.75" y1="2.39" x2="107.75" y2="26.25" xlink:href="#linear-gradient"/><linearGradient id="linear-gradient-5" x1="128.47" y1="2.39" x2="128.47" y2="26.25" xlink:href="#linear-gradient"/><linearGradient id="linear-gradient-6" x1="143.19" y1="2.39" x2="143.19" y2="26.25" xlink:href="#linear-gradient"/><linearGradient id="linear-gradient-7" x1="-2.87" y1="10.96" x2="31.25" y2="5.54" gradientUnits="userSpaceOnUse"><stop offset="0" stop-color="#ff8c02"/><stop offset="1" stop-color="#f55831"/></linearGradient><linearGradient id="linear-gradient-8" x1="-2.42" y1="13.83" x2="31.71" y2="8.41" xlink:href="#linear-gradient-7"/><linearGradient id="linear-gradient-9" x1="-2.76" y1="11.66" x2="31.36" y2="6.24" xlink:href="#linear-gradient-7"/><linearGradient id="linear-gradient-10" x1="-2.07" y1="16" x2="32.05" y2="10.58" xlink:href="#linear-gradient-7"/><linearGradient id="linear-gradient-11" x1="-2.47" y1="13.48" x2="31.65" y2="8.07" xlink:href="#linear-gradient-7"/><linearGradient id="linear-gradient-12" x1="-1.44" y1="19.99" x2="32.69" y2="14.58" xlink:href="#linear-gradient-7"/><linearGradient id="linear-gradient-13" x1="-1.15" y1="21.82" x2="32.98" y2="16.4" xlink:href="#linear-gradient-7"/><linearGradient id="linear-gradient-14" x1="-1.84" y1="17.48" x2="32.29" y2="12.06" xlink:href="#linear-gradient-7"/><linearGradient id="linear-gradient-15" x1="-3.27" y1="8.45" x2="30.85" y2="3.03" xlink:href="#linear-gradient-7"/><linearGradient id="linear-gradient-16" x1="-2.24" y1="14.96" x2="31.89" y2="9.54" xlink:href="#linear-gradient-7"/><linearGradient id="linear-gradient-17" x1="-0.51" y1="25.81" x2="33.61" y2="20.39" xlink:href="#linear-gradient-7"/><linearGradient id="linear-gradient-18" x1="-1.6" y1="18.95" x2="32.52" y2="13.54" xlink:href="#linear-gradient-7"/><linearGradient id="linear-gradient-19" x1="-2.35" y1="14.27" x2="31.78" y2="8.85" xlink:href="#linear-gradient-7"/><linearGradient id="linear-gradient-20" x1="-0.97" y1="22.95" x2="33.16" y2="17.53" xlink:href="#linear-gradient-7"/><linearGradient id="linear-gradient-21" x1="-1.41" y1="20.16" x2="32.71" y2="14.74" xlink:href="#linear-gradient-7"/><linearGradient id="linear-gradient-22" x1="-1.63" y1="18.75" x2="32.49" y2="13.33" xlink:href="#linear-gradient-7"/><linearGradient id="linear-gradient-23" x1="-1.19" y1="21.57" x2="32.94" y2="16.15" xlink:href="#linear-gradient-7"/><linearGradient id="linear-gradient-24" x1="-1.45" y1="19.93" x2="32.68" y2="14.52" xlink:href="#linear-gradient-7"/><linearGradient id="linear-gradient-25" x1="-0.65" y1="24.95" x2="33.47" y2="19.53" xlink:href="#linear-gradient-7"/><linearGradient id="linear-gradient-26" x1="-0.87" y1="23.54" x2="33.25" y2="18.12" xlink:href="#linear-gradient-7"/><linearGradient id="linear-gradient-27" x1="-0.43" y1="26.36" x2="33.7" y2="20.94" xlink:href="#linear-gradient-7"/><linearGradient id="linear-gradient-28" x1="-1.04" y1="22.52" x2="33.09" y2="17.11" xlink:href="#linear-gradient-7"/><linearGradient id="linear-gradient-29" x1="-1.52" y1="19.49" x2="32.61" y2="14.07" xlink:href="#linear-gradient-7"/><linearGradient id="linear-gradient-30" x1="-1.59" y1="19.04" x2="32.53" y2="13.62" xlink:href="#linear-gradient-7"/><linearGradient id="linear-gradient-31" x1="-0.25" y1="27.48" x2="33.87" y2="22.06" xlink:href="#linear-gradient-7"/><linearGradient id="linear-gradient-32" x1="-0.73" y1="24.44" x2="33.39" y2="19.02" xlink:href="#linear-gradient-7"/><linearGradient id="linear-gradient-33" x1="-2.25" y1="14.89" x2="31.88" y2="9.48" xlink:href="#linear-gradient-7"/><linearGradient id="linear-gradient-34" x1="-0.72" y1="24.52" x2="33.41" y2="19.1" xlink:href="#linear-gradient-7"/><linearGradient id="linear-gradient-35" x1="-3.33" y1="8.09" x2="30.8" y2="2.67" xlink:href="#linear-gradient-7"/><linearGradient id="linear-gradient-36" x1="-1.73" y1="18.13" x2="32.39" y2="12.71" xlink:href="#linear-gradient-7"/><linearGradient id="linear-gradient-37" x1="-2.94" y1="10.53" x2="31.18" y2="5.11" xlink:href="#linear-gradient-7"/><linearGradient id="linear-gradient-38" x1="-2.02" y1="16.3" x2="32.1" y2="10.88" xlink:href="#linear-gradient-7"/><linearGradient id="linear-gradient-39" x1="-2.28" y1="14.67" x2="31.84" y2="9.25" xlink:href="#linear-gradient-7"/><linearGradient id="linear-gradient-40" x1="-2.95" y1="10.45" x2="31.17" y2="5.03" xlink:href="#linear-gradient-7"/><linearGradient id="linear-gradient-41" x1="-3.4" y1="7.63" x2="30.72" y2="2.22" xlink:href="#linear-gradient-7"/><linearGradient id="linear-gradient-42" x1="-1.87" y1="17.26" x2="32.25" y2="11.84" xlink:href="#linear-gradient-7"/><linearGradient id="linear-gradient-43" x1="-2.8" y1="11.4" x2="31.32" y2="5.99" xlink:href="#linear-gradient-7"/><linearGradient id="linear-gradient-44" x1="-2.13" y1="15.63" x2="31.99" y2="10.21" xlink:href="#linear-gradient-7"/><linearGradient id="linear-gradient-45" x1="-3.28" y1="8.37" x2="30.84" y2="2.95" xlink:href="#linear-gradient-7"/><linearGradient id="linear-gradient-46" x1="-2.5" y1="13.32" x2="31.63" y2="7.9" xlink:href="#linear-gradient-7"/></defs><title>Logo-Black-Horizontal</title><path class="cls-1" d="M49.71,6.15V25.09H46.93V6.15h-6V3.5H55.74V6.15Z"/><path class="cls-2" d="M60.38,25.09H57.61V3.5H65a6.74,6.74,0,0,1,4.77,1.85,6,6,0,0,1,2,4.57,6,6,0,0,1-1.46,4,6.54,6.54,0,0,1-3.7,2.21l-.06.09L72.56,25v.12H69.28l-5.82-8.74H60.38Zm0-18.94v7.6h4.46a4,4,0,0,0,2.87-1.1,3.59,3.59,0,0,0,1.18-2.73A3.82,3.82,0,0,0,65,6.15Z"/><path class="cls-3" d="M95.15,14.29a11,11,0,0,1-3.2,8,11.23,11.23,0,0,1-15.8,0,11,11,0,0,1-3.19-8,11,11,0,0,1,3.19-8A11.19,11.19,0,0,1,92,6.3,10.93,10.93,0,0,1,95.15,14.29Zm-19.36,0a8.55,8.55,0,0,0,2.35,6.19,7.92,7.92,0,0,0,5.91,2.44,7.82,7.82,0,0,0,5.88-2.44,8.44,8.44,0,0,0,2.39-6.19,8.43,8.43,0,0,0-2.39-6.18,7.82,7.82,0,0,0-5.88-2.44,7.92,7.92,0,0,0-5.91,2.44A8.54,8.54,0,0,0,75.79,14.29Z"/><path class="cls-4" d="M100.19,25.09H97.41V3.5h2.78l7.5,13.15h.12L115.32,3.5h2.78V25.09h-2.78V12.27l.12-3.61h-.12l-6.75,11.85h-1.63L100.19,8.66h-.13l.13,3.61Z"/><path class="cls-5" d="M124.19,16.35v8.74h-2.78V3.5h7.36a6.65,6.65,0,0,1,4.77,1.87,6,6,0,0,1,2,4.55,6,6,0,0,1-2,4.59,6.69,6.69,0,0,1-4.77,1.84Zm0-10.2v7.54h4.64a3.69,3.69,0,0,0,2.75-1.11,3.65,3.65,0,0,0,1.11-2.66,3.59,3.59,0,0,0-1.11-2.62,3.65,3.65,0,0,0-2.75-1.15Z"/><path class="cls-6" d="M136.55,25.09h-3.07L141.62,3.5h3.13l8.15,21.59h-3.08l-2.08-5.85h-9.08Zm6.58-18.18-3.53,9.74h7.17l-3.52-9.74Z"/><path class="cls-7" d="M6.45,8.19v2.23H8.68V8.19Zm1.6.8v.79h-1v-1h1Z"/><polygon class="cls-8" points="12.45 12.02 12.45 10.42 11.2 10.42 11.2 11.05 11.82 11.05 11.82 12.02 11.2 12.02 11.2 12.65 12.88 12.65 12.88 12.02 12.45 12.02"/><path class="cls-9" d="M10.93,8.2v2.22h2.22V8.2ZM12.52,9v.8h-1v-1h1Z"/><path class="cls-10" d="M10.93,12.65v2.22h2.22V12.65Zm1.59.79v.8h-1v-1h1Z"/><path class="cls-11" d="M8.69,10.43v2.22h2.22V10.42Zm1.59.79V12h-1v-1h1Z"/><path class="cls-12" d="M8.69,17.1v2.22h2.22V17.1Zm1.59.79v.8h-1v-1h1Z"/><path class="cls-13" d="M6.45,19.33v2.22H8.67V19.32ZM8,20.12v.8h-1V20H8Z"/><polygon class="cls-14" points="7.97 16.46 7.97 14.88 6.72 14.88 6.72 15.51 7.34 15.51 7.34 16.46 6.72 16.46 6.72 17.1 8.4 17.1 8.4 16.46 7.97 16.46"/><polygon class="cls-15" points="5.73 7.56 5.73 5.97 4.48 5.97 4.48 6.6 5.1 6.6 5.1 7.56 4.48 7.56 4.48 8.2 6.16 8.2 6.16 7.56 5.73 7.56"/><path class="cls-16" d="M4.21,12.65v2.22H6.43V12.65Zm1.59.79v.8h-1v-1h1Z"/><polygon class="cls-17" points="5.73 25.36 5.73 23.77 4.48 23.77 4.48 24.41 5.1 24.41 5.1 25.36 4.48 25.36 4.48 26 6.16 26 6.16 25.36 5.73 25.36"/><polygon class="cls-18" points="3.49 18.69 3.49 17.1 2.24 17.1 2.24 17.73 2.86 17.73 2.86 18.69 2.24 18.69 2.24 19.32 3.92 19.32 3.92 18.69 3.49 18.69"/><polygon class="cls-19" points="1.25 14.24 1.25 12.65 0 12.65 0 13.28 0.62 13.28 0.62 14.24 0 14.24 0 14.87 1.68 14.87 1.68 14.24 1.25 14.24"/><polygon class="cls-20" points="1.25 23.14 1.25 21.55 0 21.55 0 22.18 0.62 22.18 0.62 23.14 0 23.14 0 23.77 1.68 23.77 1.68 23.14 1.25 23.14"/><polygon class="cls-21" points="12.82 18.25 12.82 17.22 12.01 17.22 12.01 17.63 12.41 17.63 12.41 18.25 12.01 18.25 12.01 18.66 13.1 18.66 13.1 18.25 12.82 18.25"/><path class="cls-22" d="M11.83,15.78v1.44h1.44V15.78Zm1,.51v.52h-.63v-.62h.63Z"/><path class="cls-23" d="M11.83,18.67v1.44h1.44V18.66Zm1,.51v.52h-.63v-.63h.63Z"/><path class="cls-24" d="M10.38,17.22v1.44h1.44V17.22Zm1,.52v.51h-.62v-.62h.62Z"/><polygon class="cls-25" points="7.02 24.08 7.02 23.05 6.21 23.05 6.21 23.46 6.61 23.46 6.61 24.08 6.21 24.08 6.21 24.49 7.29 24.49 7.29 24.08 7.02 24.08"/><path class="cls-26" d="M6,21.61v1.44H7.47V21.61Zm1,.51v.52H6.44V22h.62Z"/><path class="cls-27" d="M6,24.5v1.44H7.47V24.49Zm1,.51v.52H6.44v-.62h.62Z"/><polygon class="cls-28" points="9.93 21.14 9.93 20.11 9.12 20.11 9.12 20.52 9.52 20.52 9.52 21.14 9.12 21.14 9.12 21.55 10.2 21.55 10.2 21.14 9.93 21.14"/><polygon class="cls-29" points="8.47 18.25 8.47 17.22 7.67 17.22 7.67 17.63 8.06 17.63 8.06 18.25 7.67 18.25 7.67 18.66 8.75 18.66 8.75 18.25 8.47 18.25"/><path class="cls-30" d="M4.58,17.22v1.44H6V17.22Zm1,.52v.51H5v-.62h.62Z"/><path class="cls-31" d="M4.58,25.88v1.44H6V25.88Zm1,.51v.52H5v-.62h.62Z"/><polygon class="cls-32" points="4.12 24.02 4.12 22.99 3.31 22.99 3.31 23.4 3.71 23.4 3.71 24.02 3.31 24.02 3.31 24.43 4.39 24.43 4.39 24.02 4.12 24.02"/><polygon class="cls-33" points="14.28 12.62 14.28 11.59 13.47 11.59 13.47 12 13.87 12 13.87 12.62 13.47 12.62 13.47 13.03 14.56 13.03 14.56 12.62 14.28 12.62"/><polygon class="cls-34" points="11.42 22.44 11.42 22.33 11.32 22.33 10.91 22.33 10.8 22.33 10.8 22.44 10.8 22.85 10.8 22.95 10.91 22.95 11.32 22.95 11.42 22.95 11.42 22.85 11.42 22.44"/><polygon class="cls-35" points="15.79 4.89 15.79 4.79 15.69 4.79 15.28 4.79 15.17 4.79 15.17 4.9 15.17 5.3 15.17 5.41 15.28 5.41 15.69 5.41 15.79 5.41 15.79 5.3 15.79 4.89"/><path class="cls-36" d="M13.16,3.8V21a5.74,5.74,0,0,0-4.86.33C5.71,22.66,5,25.1,6,26.64s3.72,2.19,6.32.86a4.55,4.55,0,0,0,2.76-3.85h0V11L30.28,8V19.1a5.74,5.74,0,0,0-4.86.33c-2.59,1.33-3.32,3.76-2.32,5.31s3.73,2.19,6.32.85a4.51,4.51,0,0,0,2.76-3.84h0V0ZM10.64,26H9v-.63h.62v-1H9v-.64h1.25v1.6h.43Zm-.25-2.64V21.92h1.44v1.44Zm4.17-4.7H13.47v-.41h.4v-.62h-.4v-.41h.81v1h.28Zm.56-8.24H13.44V9.79h.62v-1h-.62V8.2h1.25V9.79h.43Zm-.36-4.6V4.38H16.2V5.82ZM17.65,8.2V6h2.22V8.19Z"/><polygon class="cls-37" points="19.24 6.77 19.24 6.6 19.07 6.6 18.44 6.61 18.28 6.61 18.28 6.77 18.28 7.4 18.28 7.56 18.45 7.56 19.08 7.56 19.24 7.56 19.24 7.4 19.24 6.77"/><path class="cls-38" d="M13.3,13v1.45h1.44V13Zm1,.52v.51h-.62v-.63h.62Z"/><path class="cls-39" d="M11.84,11.59V13h1.44V11.59Zm1,.52v.51h-.63V12h.63Z"/><path class="cls-40" d="M11.84,7.26V8.7h1.44V7.26Zm1,.52v.51h-.63V7.67h.63Z"/><polygon class="cls-41" points="12.83 5.41 12.83 4.38 12.02 4.38 12.02 4.79 12.42 4.79 12.42 5.41 12.02 5.41 12.02 5.82 13.11 5.82 13.11 5.41 12.83 5.41"/><polygon class="cls-42" points="11.38 15.51 11.38 14.48 10.57 14.48 10.57 14.89 10.97 14.89 10.97 15.51 10.57 15.51 10.57 15.92 11.66 15.92 11.66 15.51 11.38 15.51"/><polygon class="cls-43" points="9.93 9.74 9.93 8.71 9.12 8.71 9.12 9.12 9.52 9.12 9.52 9.74 9.12 9.74 9.12 10.15 10.2 10.15 10.2 9.74 9.93 9.74"/><path class="cls-44" d="M8.94,13v1.45h1.44V13Zm1,.52v.51H9.35v-.63H10Z"/><polygon class="cls-45" points="8.47 6.85 8.47 5.82 7.67 5.82 7.67 6.23 8.06 6.23 8.06 6.85 7.67 6.85 7.67 7.26 8.75 7.26 8.75 6.85 8.47 6.85"/><polygon class="cls-46" points="4.12 12.62 4.12 11.59 3.31 11.59 3.31 12 3.71 12 3.71 12.62 3.31 12.62 3.31 13.03 4.39 13.03 4.39 12.62 4.12 12.62"/></svg>