<svg xmlns="http://www.w3.org/2000/svg" xmlns:xlink="http://www.w3.org/1999/xlink" viewBox="0 0 49.74 43.62"><defs><style>.cls-1{fill:url(#linear-gradient);}.cls-2{fill:#fff;}.cls-3{fill:url(#linear-gradient-2);}.cls-4{fill:url(#linear-gradient-3);}.cls-5{fill:url(#linear-gradient-4);}.cls-6{fill:url(#linear-gradient-5);}.cls-7{fill:url(#linear-gradient-6);}.cls-8{fill:url(#linear-gradient-7);}.cls-9{fill:url(#linear-gradient-8);}.cls-10{fill:url(#linear-gradient-9);}.cls-11{fill:url(#linear-gradient-10);}.cls-12{fill:url(#linear-gradient-11);}.cls-13{fill:url(#linear-gradient-12);}.cls-14{fill:url(#linear-gradient-13);}.cls-15{fill:url(#linear-gradient-14);}.cls-16{fill:url(#linear-gradient-15);}.cls-17{fill:url(#linear-gradient-16);}.cls-18{fill:url(#linear-gradient-17);}.cls-19{fill:url(#linear-gradient-18);}.cls-20{fill:url(#linear-gradient-19);}.cls-21{fill:url(#linear-gradient-20);}.cls-22{fill:url(#linear-gradient-21);}.cls-23{fill:url(#linear-gradient-22);}.cls-24{fill:url(#linear-gradient-23);}.cls-25{fill:url(#linear-gradient-24);}.cls-26{fill:url(#linear-gradient-25);}.cls-27{fill:url(#linear-gradient-26);}.cls-28{fill:url(#linear-gradient-27);}.cls-29{fill:url(#linear-gradient-28);}.cls-30{fill:url(#linear-gradient-29);}.cls-31{fill:url(#linear-gradient-30);}.cls-32{fill:url(#linear-gradient-31);}.cls-33{fill:url(#linear-gradient-32);}.cls-34{fill:url(#linear-gradient-33);}.cls-35{fill:url(#linear-gradient-34);}.cls-36{fill:url(#linear-gradient-35);}.cls-37{fill:url(#linear-gradient-36);}.cls-38{fill:url(#linear-gradient-37);}</style><linearGradient id="linear-gradient" x1="-2.14" y1="24.56" x2="52.85" y2="20.18" gradientUnits="userSpaceOnUse"><stop offset="0.22" stop-color="#ff8c02"/><stop offset="0.36" stop-color="#ff8c02"/><stop offset="1" stop-color="#f55831"/></linearGradient><linearGradient id="linear-gradient-2" x1="-2.86" y1="15.54" x2="52.13" y2="11.16" xlink:href="#linear-gradient"/><linearGradient id="linear-gradient-3" x1="-2.55" y1="19.52" x2="52.45" y2="15.13" xlink:href="#linear-gradient"/><linearGradient id="linear-gradient-4" x1="-2.82" y1="16.1" x2="52.18" y2="11.72" xlink:href="#linear-gradient"/><linearGradient id="linear-gradient-5" x1="-2.27" y1="22.94" x2="52.72" y2="18.55" xlink:href="#linear-gradient"/><linearGradient id="linear-gradient-6" x1="-2.57" y1="19.24" x2="52.43" y2="14.86" xlink:href="#linear-gradient"/><linearGradient id="linear-gradient-7" x1="-1.75" y1="29.5" x2="53.24" y2="25.12" xlink:href="#linear-gradient"/><linearGradient id="linear-gradient-8" x1="-1.5" y1="32.64" x2="53.5" y2="28.26" xlink:href="#linear-gradient"/><linearGradient id="linear-gradient-9" x1="-2.04" y1="25.81" x2="52.95" y2="21.42" xlink:href="#linear-gradient"/><linearGradient id="linear-gradient-10" x1="-3.16" y1="11.86" x2="51.84" y2="7.48" xlink:href="#linear-gradient"/><linearGradient id="linear-gradient-11" x1="-2.34" y1="22.11" x2="52.66" y2="17.73" xlink:href="#linear-gradient"/><linearGradient id="linear-gradient-12" x1="-0.98" y1="39.2" x2="54.02" y2="34.82" xlink:href="#linear-gradient"/><linearGradient id="linear-gradient-13" x1="-1.82" y1="28.68" x2="53.18" y2="24.29" xlink:href="#linear-gradient"/><linearGradient id="linear-gradient-14" x1="-2.38" y1="21.56" x2="52.61" y2="17.18" xlink:href="#linear-gradient"/><linearGradient id="linear-gradient-15" x1="-1.29" y1="35.24" x2="53.7" y2="30.86" xlink:href="#linear-gradient"/><linearGradient id="linear-gradient-16" x1="-1.76" y1="29.42" x2="53.24" y2="25.04" xlink:href="#linear-gradient"/><linearGradient id="linear-gradient-17" x1="-1.93" y1="27.21" x2="53.06" y2="22.82" xlink:href="#linear-gradient"/><linearGradient id="linear-gradient-18" x1="-1.58" y1="31.64" x2="53.42" y2="27.26" xlink:href="#linear-gradient"/><linearGradient id="linear-gradient-19" x1="-1.77" y1="29.24" x2="53.22" y2="24.86" xlink:href="#linear-gradient"/><linearGradient id="linear-gradient-20" x1="-1.1" y1="37.67" x2="53.9" y2="33.29" xlink:href="#linear-gradient"/><linearGradient id="linear-gradient-21" x1="-1.28" y1="35.45" x2="53.72" y2="31.07" xlink:href="#linear-gradient"/><linearGradient id="linear-gradient-22" x1="-0.92" y1="39.88" x2="54.07" y2="35.5" xlink:href="#linear-gradient"/><linearGradient id="linear-gradient-23" x1="-1.43" y1="33.5" x2="53.56" y2="29.12" xlink:href="#linear-gradient"/><linearGradient id="linear-gradient-24" x1="-1.8" y1="28.89" x2="53.2" y2="24.51" xlink:href="#linear-gradient"/><linearGradient id="linear-gradient-25" x1="-1.83" y1="28.53" x2="53.17" y2="24.15" xlink:href="#linear-gradient"/><linearGradient id="linear-gradient-26" x1="-0.77" y1="41.83" x2="54.23" y2="37.45" xlink:href="#linear-gradient"/><linearGradient id="linear-gradient-27" x1="-1.13" y1="37.22" x2="53.86" y2="32.84" xlink:href="#linear-gradient"/><linearGradient id="linear-gradient-28" x1="-2.43" y1="20.95" x2="52.56" y2="16.57" xlink:href="#linear-gradient"/><linearGradient id="linear-gradient-29" x1="-2.25" y1="23.17" x2="52.74" y2="18.79" xlink:href="#linear-gradient"/><linearGradient id="linear-gradient-30" x1="-2.45" y1="20.77" x2="52.55" y2="16.39" xlink:href="#linear-gradient"/><linearGradient id="linear-gradient-31" x1="-2.97" y1="14.13" x2="52.02" y2="9.74" xlink:href="#linear-gradient"/><linearGradient id="linear-gradient-32" x1="-3.33" y1="9.7" x2="51.67" y2="5.31" xlink:href="#linear-gradient"/><linearGradient id="linear-gradient-33" x1="-2.11" y1="25.03" x2="52.89" y2="20.65" xlink:href="#linear-gradient"/><linearGradient id="linear-gradient-34" x1="-2.83" y1="15.99" x2="52.17" y2="11.6" xlink:href="#linear-gradient"/><linearGradient id="linear-gradient-35" x1="-2.3" y1="22.63" x2="52.7" y2="18.25" xlink:href="#linear-gradient"/><linearGradient id="linear-gradient-36" x1="-3.19" y1="11.38" x2="51.8" y2="7" xlink:href="#linear-gradient"/><linearGradient id="linear-gradient-37" x1="-2.53" y1="19.71" x2="52.46" y2="15.33" xlink:href="#linear-gradient"/></defs><title>Asset 2</title><g id="Layer_2" data-name="Layer 2"><g id="Layer_1-2" data-name="Layer 1"><g id="Group"><path id="Rectangle_233" data-name="Rectangle 233" class="cls-1" d="M23.28,17.06v19.5h0C23.3,38.65,21.9,41,19,42.5c-4,2.07-8.23,1.06-9.77-1.32S8.82,35,12.84,33a8.89,8.89,0,0,1,7.5-.51V5.88L49.74,0V33.62h0c0,2.1-1.37,4.46-4.26,5.94-4,2.07-8.23,1.06-9.78-1.32S35.29,32.1,39.3,30a8.89,8.89,0,0,1,7.5-.51V12.35Z"/></g><polygon class="cls-2" points="22.71 15.13 22.71 12.67 20.78 12.67 20.78 13.65 21.73 13.65 21.73 15.13 20.78 15.13 20.78 16.11 23.37 16.11 23.37 15.13 22.71 15.13"/><path class="cls-2" d="M27.28,9.24v3.43h3.43V9.23Zm2.46,1.22v1.23H28.26V10.21h1.48Z"/><polygon class="cls-2" points="15.78 39.21 15.78 36.75 13.85 36.75 13.85 37.73 14.81 37.73 14.81 39.21 13.85 39.21 13.85 40.19 16.45 40.19 16.45 39.21 15.78 39.21"/><path class="cls-3" d="M10,12.67V16.1h3.44V12.66Zm2.46,1.22v1.23H11V13.64h1.49Z"/><polygon class="cls-4" points="19.25 18.57 19.25 16.11 17.32 16.11 17.32 17.09 18.27 17.09 18.27 18.57 17.32 18.57 17.32 19.55 19.91 19.55 19.91 18.57 19.25 18.57"/><path class="cls-5" d="M16.89,12.68v3.43h3.43V12.67Zm2.46,1.22v1.23H17.87V13.65h1.48Z"/><path class="cls-6" d="M16.89,19.56V23h3.43V19.55Zm2.46,1.22V22H17.87V20.53h1.48Z"/><path class="cls-7" d="M13.43,16.12v3.43h3.44V16.11Zm2.46,1.22v1.23H14.41V17.09h1.48Z"/><path class="cls-8" d="M13.43,26.44v3.43h3.44V26.43Zm2.46,1.22v1.23H14.41V27.41h1.48Z"/><path class="cls-9" d="M10,29.88v3.43H13.4V29.87Zm2.47,1.22v1.23H10.94V30.85h1.49Z"/><polygon class="cls-10" points="12.32 25.45 12.32 22.99 10.39 22.99 10.39 23.97 11.34 23.97 11.34 25.45 10.39 25.45 10.39 26.43 12.98 26.43 12.98 25.45 12.32 25.45"/><polygon class="cls-11" points="8.86 11.69 8.86 9.23 6.93 9.23 6.93 10.21 7.88 10.21 7.88 11.69 6.93 11.69 6.93 12.67 9.52 12.67 9.52 11.69 8.86 11.69"/><path class="cls-12" d="M6.5,19.56V23H9.94V19.55ZM9,20.78V22H7.48V20.53H9Z"/><polygon class="cls-13" points="8.86 39.21 8.86 36.75 6.93 36.75 6.93 37.73 7.88 37.73 7.88 39.21 6.93 39.21 6.93 40.19 9.52 40.19 9.52 39.21 8.86 39.21"/><polygon class="cls-14" points="5.39 28.89 5.39 26.43 3.46 26.43 3.46 27.41 4.42 27.41 4.42 28.89 3.46 28.89 3.46 29.87 6.05 29.87 6.05 28.89 5.39 28.89"/><polygon class="cls-15" points="1.93 22.01 1.93 19.55 0 19.55 0 20.53 0.95 20.53 0.95 22.01 0 22.01 0 22.99 2.59 22.99 2.59 22.01 1.93 22.01"/><polygon class="cls-16" points="1.93 35.77 1.93 33.31 0 33.31 0 34.29 0.95 34.29 0.95 35.77 0 35.77 0 36.75 2.59 36.75 2.59 35.77 1.93 35.77"/><polygon class="cls-17" points="19.82 28.22 19.82 26.62 18.57 26.62 18.57 27.25 19.19 27.25 19.19 28.22 18.57 28.22 18.57 28.85 20.25 28.85 20.25 28.22 19.82 28.22"/><polygon class="cls-2" points="22.08 28.22 22.08 26.62 20.83 26.62 20.83 27.25 21.45 27.25 21.45 28.22 20.83 28.22 20.83 28.85 22.51 28.85 22.51 28.22 22.08 28.22"/><path class="cls-18" d="M18.29,24.39v2.23h2.22V24.39Zm1.6.8V26h-1V25h1Z"/><path class="cls-19" d="M18.29,28.85v2.23h2.22V28.85Zm1.6.8v.8h-1v-1h1Z"/><path class="cls-20" d="M16.05,26.62v2.23h2.23V26.62Zm1.59.8v.8h-1v-1h1Z"/><polygon class="cls-21" points="10.85 37.23 10.85 35.64 9.6 35.64 9.6 36.27 10.21 36.27 10.21 37.23 9.6 37.23 9.6 37.86 11.28 37.86 11.28 37.23 10.85 37.23"/><path class="cls-22" d="M9.32,33.41v2.22h2.23V33.4Zm1.6.79V35H10V34h1Z"/><path class="cls-23" d="M9.32,37.87v2.22h2.23V37.86Zm1.6.79v.8H10v-1h1Z"/><polygon class="cls-24" points="15.34 32.68 15.34 31.08 14.09 31.08 14.09 31.71 14.71 31.71 14.71 32.68 14.09 32.68 14.09 33.31 15.77 33.31 15.77 32.68 15.34 32.68"/><path class="cls-2" d="M16.06,33.89v2.23h2.22V33.89Zm1.6.79v.8h-1v-1h1Z"/><polygon class="cls-25" points="13.1 28.22 13.1 26.62 11.85 26.62 11.85 27.25 12.47 27.25 12.47 28.22 11.85 28.22 11.85 28.85 13.53 28.85 13.53 28.22 13.1 28.22"/><path class="cls-26" d="M7.08,26.62v2.23H9.31V26.62Zm1.6.8v.8h-1v-1h1Z"/><path class="cls-27" d="M7.08,40v2.23H9.31V40Zm1.6.8v.8h-1v-1h1Z"/><polygon class="cls-28" points="6.36 37.14 6.36 35.54 5.11 35.54 5.11 36.17 5.73 36.17 5.73 37.14 5.11 37.14 5.11 37.77 6.79 37.77 6.79 37.14 6.36 37.14"/><polygon class="cls-29" points="22.08 19.51 22.08 17.92 20.83 17.92 20.83 18.55 21.45 18.55 21.45 19.51 20.83 19.51 20.83 20.14 22.51 20.14 22.51 19.51 22.08 19.51"/><path class="cls-2" d="M22.82,6.77V9h2.23V6.77Zm1.59.8v.79h-1v-1h1Z"/><path class="cls-30" d="M20.55,20.15v2.23h2.22V20.15Zm1.6.79v.8h-1v-1h1Z"/><path class="cls-31" d="M18.31,17.92v2.23h2.23V17.92Zm1.59.79v.8h-1v-1h1Z"/><path class="cls-32" d="M18.31,11.23v2.23h2.23V11.23ZM19.9,12v.8h-1v-1h1Z"/><polygon class="cls-33" points="19.84 8.36 19.84 6.77 18.58 6.77 18.58 7.4 19.2 7.4 19.2 8.36 18.58 8.36 18.58 9 20.26 9 20.26 8.36 19.84 8.36"/><polygon class="cls-34" points="17.59 23.97 17.59 22.38 16.34 22.38 16.34 23.01 16.96 23.01 16.96 23.97 16.34 23.97 16.34 24.61 18.02 24.61 18.02 23.97 17.59 23.97"/><polygon class="cls-35" points="15.34 15.05 15.34 13.46 14.09 13.46 14.09 14.09 14.71 14.09 14.71 15.05 14.09 15.05 14.09 15.68 15.77 15.68 15.77 15.05 15.34 15.05"/><path class="cls-36" d="M13.82,20.15v2.23h2.23V20.15Zm1.59.79v.8h-1v-1h1Z"/><polygon class="cls-37" points="13.1 10.59 13.1 9 11.85 9 11.85 9.63 12.47 9.63 12.47 10.59 11.85 10.59 11.85 11.22 13.53 11.22 13.53 10.59 13.1 10.59"/><polygon class="cls-38" points="6.36 19.51 6.36 17.92 5.11 17.92 5.11 18.55 5.73 18.55 5.73 19.51 5.11 19.51 5.11 20.14 6.79 20.14 6.79 19.51 6.36 19.51"/></g></g></svg>