<?xml version="1.0" encoding="UTF-8"?>
<svg width="286px" height="404px" viewBox="0 0 286 404" version="1.1" xmlns="http://www.w3.org/2000/svg" xmlns:xlink="http://www.w3.org/1999/xlink">
    <title>Artboard</title>
    <g id="Artboard" stroke="none" stroke-width="1" fill="none" fill-rule="evenodd">
        <rect id="Container" fill="#FFFFFF" x="0" y="-2.84217094e-14" width="286" height="403.83" rx="4"></rect>
        <g id="Group-3" transform="translate(21.000000, 78.000000)">
            <g id="Group-2">
                <rect id="Label" fill="#AFB9C5" x="0" y="9" width="34" height="5.85" rx="2.925"></rect>
                <g id="Group" transform="translate(43.000000, 3.000000)" fill="#DDE3E9">
                    <rect id="Label-Copy" x="0" y="0" width="201" height="1" rx="0.5"></rect>
                    <rect id="Label-Copy" x="0" y="0" width="1" height="17" rx="0.5"></rect>
                    <rect id="Label-Copy-5" x="67" y="0" width="1" height="17" rx="0.5"></rect>
                    <rect id="Label-Copy-6" x="134" y="0" width="1" height="17" rx="0.5"></rect>
                    <rect id="Label-Copy-7" x="201" y="0" width="1" height="17" rx="0.5"></rect>
                    <rect id="Label-Copy-2" x="0" y="12" width="201" height="1" rx="0.5"></rect>
                    <rect id="Label-Copy-8" x="0" y="16" width="201" height="1" rx="0.5"></rect>
                    <rect id="Label-Copy-3" x="0" y="4" width="201" height="1" rx="0.5"></rect>
                    <rect id="Label-Copy-4" x="0" y="8" width="201" height="1" rx="0.5"></rect>
                </g>
                <g id="Group-4" transform="translate(80.000000, 5.000000)" fill="#C5CFD6">
                    <rect id="Label-Copy-12" x="0" y="7" width="3" height="14" rx="1.5"></rect>
                    <rect id="Label-Copy-13" x="11" y="3" width="3" height="14" rx="1.5"></rect>
                    <rect id="Label-Copy-14" x="22" y="0" width="3" height="14" rx="1.5"></rect>
                </g>
                <rect id="Label-Copy" fill="#C5CFD6" x="57" y="3" width="6" height="7" rx="3"></rect>
                <rect id="Label-Copy-10" fill="#C5CFD6" x="46" y="0" width="8" height="24" rx="3"></rect>
                <rect id="Label-Copy-11" fill="#C5CFD6" x="69" y="12" width="3" height="14" rx="1.5"></rect>
                <rect id="Label-Copy-15" fill="#C5CFD6" x="133" y="12" width="3" height="14" rx="1.5"></rect>
                <rect id="Label-Copy-19" fill="#C5CFD6" x="201" y="5" width="3" height="14" rx="1.5"></rect>
                <rect id="Label-Copy-16" fill="#C5CFD6" x="149" y="12" width="3" height="14" rx="1.5"></rect>
                <rect id="Label-Copy-20" fill="#C5CFD6" x="217" y="0" width="3" height="14" rx="1.5"></rect>
                <rect id="Label-Copy-17" fill="#C5CFD6" x="165" y="0" width="3" height="14" rx="1.5"></rect>
                <rect id="Label-Copy-21" fill="#C5CFD6" x="233" y="9" width="3" height="14" rx="1.5"></rect>
                <rect id="Label-Copy-18" fill="#C5CFD6" x="117" y="5" width="3" height="14" rx="1.5"></rect>
                <rect id="Label-Copy-22" fill="#C5CFD6" x="185" y="5" width="3" height="14" rx="1.5"></rect>
            </g>
            <g id="Group-2-Copy" transform="translate(0.000000, 40.000000)">
                <rect id="Label" fill="#AFB9C5" x="0" y="9" width="34" height="5.85" rx="2.925"></rect>
                <g id="Group" transform="translate(43.000000, 3.000000)" fill="#DDE3E9">
                    <rect id="Label-Copy" x="0" y="0" width="201" height="1" rx="0.5"></rect>
                    <rect id="Label-Copy" x="0" y="0" width="1" height="17" rx="0.5"></rect>
                    <rect id="Label-Copy-5" x="67" y="0" width="1" height="17" rx="0.5"></rect>
                    <rect id="Label-Copy-6" x="134" y="0" width="1" height="17" rx="0.5"></rect>
                    <rect id="Label-Copy-7" x="201" y="0" width="1" height="17" rx="0.5"></rect>
                    <rect id="Label-Copy-2" x="0" y="12" width="201" height="1" rx="0.5"></rect>
                    <rect id="Label-Copy-8" x="0" y="16" width="201" height="1" rx="0.5"></rect>
                    <rect id="Label-Copy-3" x="0" y="4" width="201" height="1" rx="0.5"></rect>
                    <rect id="Label-Copy-4" x="0" y="8" width="201" height="1" rx="0.5"></rect>
                </g>
                <rect id="Label-Copy" fill="#C5CFD6" x="57" y="3" width="6" height="7" rx="3"></rect>
                <rect id="Label-Copy-10" fill="#C5CFD6" x="46" y="0" width="8" height="24" rx="3"></rect>
                <rect id="Label-Copy-11" fill="#C5CFD6" x="69" y="12" width="3" height="14" rx="1.5"></rect>
                <rect id="Label-Copy-15" fill="#C5CFD6" x="133" y="12" width="3" height="14" rx="1.5"></rect>
                <rect id="Label-Copy-19" fill="#C5CFD6" x="201" y="5" width="3" height="14" rx="1.5"></rect>
                <rect id="Label-Copy-12" fill="#C5CFD6" x="80" y="12" width="3" height="14" rx="1.5"></rect>
                <rect id="Label-Copy-16" fill="#C5CFD6" x="149" y="12" width="3" height="14" rx="1.5"></rect>
                <rect id="Label-Copy-20" fill="#C5CFD6" x="217" y="0" width="3" height="14" rx="1.5"></rect>
                <rect id="Label-Copy-13" fill="#C5CFD6" x="91" y="8" width="3" height="14" rx="1.5"></rect>
                <rect id="Label-Copy-17" fill="#C5CFD6" x="165" y="0" width="3" height="14" rx="1.5"></rect>
                <rect id="Label-Copy-21" fill="#C5CFD6" x="233" y="9" width="3" height="14" rx="1.5"></rect>
                <rect id="Label-Copy-14" fill="#C5CFD6" x="102" y="5" width="3" height="14" rx="1.5"></rect>
                <rect id="Label-Copy-18" fill="#C5CFD6" x="117" y="5" width="3" height="14" rx="1.5"></rect>
                <rect id="Label-Copy-22" fill="#C5CFD6" x="185" y="5" width="3" height="14" rx="1.5"></rect>
            </g>
            <g id="Group-2-Copy-2" transform="translate(0.000000, 80.000000)">
                <rect id="Label" fill="#AFB9C5" x="0" y="9" width="34" height="5.85" rx="2.925"></rect>
                <g id="Group" transform="translate(43.000000, 3.000000)" fill="#DDE3E9">
                    <rect id="Label-Copy" x="0" y="0" width="201" height="1" rx="0.5"></rect>
                    <rect id="Label-Copy" x="0" y="0" width="1" height="17" rx="0.5"></rect>
                    <rect id="Label-Copy-5" x="67" y="0" width="1" height="17" rx="0.5"></rect>
                    <rect id="Label-Copy-6" x="134" y="0" width="1" height="17" rx="0.5"></rect>
                    <rect id="Label-Copy-7" x="201" y="0" width="1" height="17" rx="0.5"></rect>
                    <rect id="Label-Copy-2" x="0" y="12" width="201" height="1" rx="0.5"></rect>
                    <rect id="Label-Copy-8" x="0" y="16" width="201" height="1" rx="0.5"></rect>
                    <rect id="Label-Copy-3" x="0" y="4" width="201" height="1" rx="0.5"></rect>
                    <rect id="Label-Copy-4" x="0" y="8" width="201" height="1" rx="0.5"></rect>
                </g>
                <rect id="Label-Copy" fill="#C5CFD6" x="57" y="3" width="6" height="7" rx="3"></rect>
                <rect id="Label-Copy-10" fill="#C5CFD6" x="46" y="0" width="8" height="24" rx="3"></rect>
                <rect id="Label-Copy-11" fill="#C5CFD6" x="69" y="12" width="3" height="14" rx="1.5"></rect>
                <rect id="Label-Copy-15" fill="#C5CFD6" x="133" y="12" width="3" height="14" rx="1.5"></rect>
                <rect id="Label-Copy-19" fill="#C5CFD6" x="201" y="5" width="3" height="14" rx="1.5"></rect>
                <rect id="Label-Copy-12" fill="#C5CFD6" x="80" y="12" width="3" height="14" rx="1.5"></rect>
                <rect id="Label-Copy-16" fill="#C5CFD6" x="149" y="12" width="3" height="14" rx="1.5"></rect>
                <rect id="Label-Copy-20" fill="#C5CFD6" x="217" y="0" width="3" height="14" rx="1.5"></rect>
                <rect id="Label-Copy-13" fill="#C5CFD6" x="91" y="8" width="3" height="14" rx="1.5"></rect>
                <rect id="Label-Copy-17" fill="#C5CFD6" x="165" y="0" width="3" height="14" rx="1.5"></rect>
                <rect id="Label-Copy-21" fill="#C5CFD6" x="233" y="9" width="3" height="14" rx="1.5"></rect>
                <rect id="Label-Copy-14" fill="#C5CFD6" x="102" y="5" width="3" height="14" rx="1.5"></rect>
                <rect id="Label-Copy-18" fill="#C5CFD6" x="117" y="5" width="3" height="14" rx="1.5"></rect>
                <rect id="Label-Copy-22" fill="#C5CFD6" x="185" y="5" width="3" height="14" rx="1.5"></rect>
            </g>
            <g id="Group-2-Copy-3" transform="translate(0.000000, 120.000000)">
                <rect id="Label" fill="#AFB9C5" x="0" y="9" width="34" height="5.85" rx="2.925"></rect>
                <g id="Group" transform="translate(43.000000, 3.000000)" fill="#DDE3E9">
                    <rect id="Label-Copy" x="0" y="0" width="201" height="1" rx="0.5"></rect>
                    <rect id="Label-Copy" x="0" y="0" width="1" height="17" rx="0.5"></rect>
                    <rect id="Label-Copy-5" x="67" y="0" width="1" height="17" rx="0.5"></rect>
                    <rect id="Label-Copy-6" x="134" y="0" width="1" height="17" rx="0.5"></rect>
                    <rect id="Label-Copy-7" x="201" y="0" width="1" height="17" rx="0.5"></rect>
                    <rect id="Label-Copy-2" x="0" y="12" width="201" height="1" rx="0.5"></rect>
                    <rect id="Label-Copy-8" x="0" y="16" width="201" height="1" rx="0.5"></rect>
                    <rect id="Label-Copy-3" x="0" y="4" width="201" height="1" rx="0.5"></rect>
                    <rect id="Label-Copy-4" x="0" y="8" width="201" height="1" rx="0.5"></rect>
                </g>
                <rect id="Label-Copy" fill="#C5CFD6" x="57" y="3" width="6" height="7" rx="3"></rect>
                <rect id="Label-Copy-10" fill="#C5CFD6" x="46" y="0" width="8" height="24" rx="3"></rect>
                <rect id="Label-Copy-11" fill="#C5CFD6" x="69" y="12" width="3" height="14" rx="1.5"></rect>
                <rect id="Label-Copy-15" fill="#C5CFD6" x="133" y="12" width="3" height="14" rx="1.5"></rect>
                <rect id="Label-Copy-19" fill="#C5CFD6" x="201" y="5" width="3" height="14" rx="1.5"></rect>
                <rect id="Label-Copy-12" fill="#C5CFD6" x="80" y="12" width="3" height="14" rx="1.5"></rect>
                <rect id="Label-Copy-16" fill="#C5CFD6" x="149" y="12" width="3" height="14" rx="1.5"></rect>
                <rect id="Label-Copy-20" fill="#C5CFD6" x="217" y="0" width="3" height="14" rx="1.5"></rect>
                <rect id="Label-Copy-13" fill="#C5CFD6" x="91" y="8" width="3" height="14" rx="1.5"></rect>
                <rect id="Label-Copy-17" fill="#C5CFD6" x="165" y="0" width="3" height="14" rx="1.5"></rect>
                <rect id="Label-Copy-21" fill="#C5CFD6" x="233" y="9" width="3" height="14" rx="1.5"></rect>
                <rect id="Label-Copy-14" fill="#C5CFD6" x="102" y="5" width="3" height="14" rx="1.5"></rect>
                <rect id="Label-Copy-18" fill="#C5CFD6" x="117" y="5" width="3" height="14" rx="1.5"></rect>
                <rect id="Label-Copy-22" fill="#C5CFD6" x="185" y="5" width="3" height="14" rx="1.5"></rect>
            </g>
            <g id="Group-2-Copy-4" transform="translate(0.000000, 160.000000)">
                <rect id="Label" fill="#AFB9C5" x="0" y="9" width="34" height="5.85" rx="2.925"></rect>
                <g id="Group" transform="translate(43.000000, 3.000000)" fill="#DDE3E9">
                    <rect id="Label-Copy" x="0" y="0" width="201" height="1" rx="0.5"></rect>
                    <rect id="Label-Copy" x="0" y="0" width="1" height="17" rx="0.5"></rect>
                    <rect id="Label-Copy-5" x="67" y="0" width="1" height="17" rx="0.5"></rect>
                    <rect id="Label-Copy-6" x="134" y="0" width="1" height="17" rx="0.5"></rect>
                    <rect id="Label-Copy-7" x="201" y="0" width="1" height="17" rx="0.5"></rect>
                    <rect id="Label-Copy-2" x="0" y="12" width="201" height="1" rx="0.5"></rect>
                    <rect id="Label-Copy-8" x="0" y="16" width="201" height="1" rx="0.5"></rect>
                    <rect id="Label-Copy-3" x="0" y="4" width="201" height="1" rx="0.5"></rect>
                    <rect id="Label-Copy-4" x="0" y="8" width="201" height="1" rx="0.5"></rect>
                </g>
                <rect id="Label-Copy" fill="#C5CFD6" x="57" y="3" width="6" height="7" rx="3"></rect>
                <rect id="Label-Copy-10" fill="#C5CFD6" x="46" y="0" width="8" height="24" rx="3"></rect>
                <rect id="Label-Copy-11" fill="#C5CFD6" x="69" y="12" width="3" height="14" rx="1.5"></rect>
                <rect id="Label-Copy-15" fill="#C5CFD6" x="133" y="12" width="3" height="14" rx="1.5"></rect>
                <rect id="Label-Copy-19" fill="#C5CFD6" x="201" y="5" width="3" height="14" rx="1.5"></rect>
                <rect id="Label-Copy-12" fill="#C5CFD6" x="80" y="12" width="3" height="14" rx="1.5"></rect>
                <rect id="Label-Copy-16" fill="#C5CFD6" x="149" y="12" width="3" height="14" rx="1.5"></rect>
                <rect id="Label-Copy-20" fill="#C5CFD6" x="217" y="0" width="3" height="14" rx="1.5"></rect>
                <rect id="Label-Copy-13" fill="#C5CFD6" x="91" y="8" width="3" height="14" rx="1.5"></rect>
                <rect id="Label-Copy-17" fill="#C5CFD6" x="165" y="0" width="3" height="14" rx="1.5"></rect>
                <rect id="Label-Copy-21" fill="#C5CFD6" x="233" y="9" width="3" height="14" rx="1.5"></rect>
                <rect id="Label-Copy-14" fill="#C5CFD6" x="102" y="5" width="3" height="14" rx="1.5"></rect>
                <rect id="Label-Copy-18" fill="#C5CFD6" x="117" y="5" width="3" height="14" rx="1.5"></rect>
                <rect id="Label-Copy-22" fill="#C5CFD6" x="185" y="5" width="3" height="14" rx="1.5"></rect>
            </g>
            <g id="Group-2-Copy-5" transform="translate(0.000000, 200.000000)">
                <rect id="Label" fill="#AFB9C5" x="0" y="9" width="34" height="5.85" rx="2.925"></rect>
                <g id="Group" transform="translate(43.000000, 3.000000)" fill="#DDE3E9">
                    <rect id="Label-Copy" x="0" y="0" width="201" height="1" rx="0.5"></rect>
                    <rect id="Label-Copy" x="0" y="0" width="1" height="17" rx="0.5"></rect>
                    <rect id="Label-Copy-5" x="67" y="0" width="1" height="17" rx="0.5"></rect>
                    <rect id="Label-Copy-6" x="134" y="0" width="1" height="17" rx="0.5"></rect>
                    <rect id="Label-Copy-7" x="201" y="0" width="1" height="17" rx="0.5"></rect>
                    <rect id="Label-Copy-2" x="0" y="12" width="201" height="1" rx="0.5"></rect>
                    <rect id="Label-Copy-8" x="0" y="16" width="201" height="1" rx="0.5"></rect>
                    <rect id="Label-Copy-3" x="0" y="4" width="201" height="1" rx="0.5"></rect>
                    <rect id="Label-Copy-4" x="0" y="8" width="201" height="1" rx="0.5"></rect>
                </g>
                <rect id="Label-Copy" fill="#C5CFD6" x="57" y="3" width="6" height="7" rx="3"></rect>
                <rect id="Label-Copy-10" fill="#C5CFD6" x="46" y="0" width="8" height="24" rx="3"></rect>
                <rect id="Label-Copy-11" fill="#C5CFD6" x="69" y="12" width="3" height="14" rx="1.5"></rect>
                <rect id="Label-Copy-15" fill="#C5CFD6" x="133" y="12" width="3" height="14" rx="1.5"></rect>
                <rect id="Label-Copy-19" fill="#C5CFD6" x="201" y="5" width="3" height="14" rx="1.5"></rect>
                <rect id="Label-Copy-12" fill="#C5CFD6" x="80" y="12" width="3" height="14" rx="1.5"></rect>
                <rect id="Label-Copy-16" fill="#C5CFD6" x="149" y="12" width="3" height="14" rx="1.5"></rect>
                <rect id="Label-Copy-20" fill="#C5CFD6" x="217" y="0" width="3" height="14" rx="1.5"></rect>
                <rect id="Label-Copy-13" fill="#C5CFD6" x="91" y="8" width="3" height="14" rx="1.5"></rect>
                <rect id="Label-Copy-17" fill="#C5CFD6" x="165" y="0" width="3" height="14" rx="1.5"></rect>
                <rect id="Label-Copy-21" fill="#C5CFD6" x="233" y="9" width="3" height="14" rx="1.5"></rect>
                <rect id="Label-Copy-14" fill="#C5CFD6" x="102" y="5" width="3" height="14" rx="1.5"></rect>
                <rect id="Label-Copy-18" fill="#C5CFD6" x="117" y="5" width="3" height="14" rx="1.5"></rect>
                <rect id="Label-Copy-22" fill="#C5CFD6" x="185" y="5" width="3" height="14" rx="1.5"></rect>
            </g>
            <g id="Group-2-Copy-8" transform="translate(0.000000, 240.000000)">
                <rect id="Label" fill="#AFB9C5" x="0" y="9" width="34" height="5.85" rx="2.925"></rect>
                <g id="Group" transform="translate(43.000000, 3.000000)" fill="#DDE3E9">
                    <rect id="Label-Copy" x="0" y="0" width="201" height="1" rx="0.5"></rect>
                    <rect id="Label-Copy" x="0" y="0" width="1" height="17" rx="0.5"></rect>
                    <rect id="Label-Copy-5" x="67" y="0" width="1" height="17" rx="0.5"></rect>
                    <rect id="Label-Copy-6" x="134" y="0" width="1" height="17" rx="0.5"></rect>
                    <rect id="Label-Copy-7" x="201" y="0" width="1" height="17" rx="0.5"></rect>
                    <rect id="Label-Copy-2" x="0" y="12" width="201" height="1" rx="0.5"></rect>
                    <rect id="Label-Copy-8" x="0" y="16" width="201" height="1" rx="0.5"></rect>
                    <rect id="Label-Copy-3" x="0" y="4" width="201" height="1" rx="0.5"></rect>
                    <rect id="Label-Copy-4" x="0" y="8" width="201" height="1" rx="0.5"></rect>
                </g>
                <rect id="Label-Copy" fill="#C5CFD6" x="57" y="3" width="6" height="7" rx="3"></rect>
                <rect id="Label-Copy-10" fill="#C5CFD6" x="46" y="0" width="8" height="24" rx="3"></rect>
                <rect id="Label-Copy-11" fill="#C5CFD6" x="69" y="12" width="3" height="14" rx="1.5"></rect>
                <rect id="Label-Copy-15" fill="#C5CFD6" x="133" y="12" width="3" height="14" rx="1.5"></rect>
                <rect id="Label-Copy-19" fill="#C5CFD6" x="201" y="5" width="3" height="14" rx="1.5"></rect>
                <rect id="Label-Copy-12" fill="#C5CFD6" x="80" y="12" width="3" height="14" rx="1.5"></rect>
                <rect id="Label-Copy-16" fill="#C5CFD6" x="149" y="12" width="3" height="14" rx="1.5"></rect>
                <rect id="Label-Copy-20" fill="#C5CFD6" x="217" y="0" width="3" height="14" rx="1.5"></rect>
                <rect id="Label-Copy-13" fill="#C5CFD6" x="91" y="8" width="3" height="14" rx="1.5"></rect>
                <rect id="Label-Copy-17" fill="#C5CFD6" x="165" y="0" width="3" height="14" rx="1.5"></rect>
                <rect id="Label-Copy-21" fill="#C5CFD6" x="233" y="9" width="3" height="14" rx="1.5"></rect>
                <rect id="Label-Copy-14" fill="#C5CFD6" x="102" y="5" width="3" height="14" rx="1.5"></rect>
                <rect id="Label-Copy-18" fill="#C5CFD6" x="117" y="5" width="3" height="14" rx="1.5"></rect>
                <rect id="Label-Copy-22" fill="#C5CFD6" x="185" y="5" width="3" height="14" rx="1.5"></rect>
            </g>
            <g id="Group-2-Copy-9" transform="translate(0.000000, 280.000000)">
                <rect id="Label" fill="#AFB9C5" x="0" y="9" width="34" height="5.85" rx="2.925"></rect>
                <g id="Group" transform="translate(43.000000, 3.000000)" fill="#DDE3E9">
                    <rect id="Label-Copy" x="0" y="0" width="201" height="1" rx="0.5"></rect>
                    <rect id="Label-Copy" x="0" y="0" width="1" height="17" rx="0.5"></rect>
                    <rect id="Label-Copy-5" x="67" y="0" width="1" height="17" rx="0.5"></rect>
                    <rect id="Label-Copy-6" x="134" y="0" width="1" height="17" rx="0.5"></rect>
                    <rect id="Label-Copy-7" x="201" y="0" width="1" height="17" rx="0.5"></rect>
                    <rect id="Label-Copy-2" x="0" y="12" width="201" height="1" rx="0.5"></rect>
                    <rect id="Label-Copy-8" x="0" y="16" width="201" height="1" rx="0.5"></rect>
                    <rect id="Label-Copy-3" x="0" y="4" width="201" height="1" rx="0.5"></rect>
                    <rect id="Label-Copy-4" x="0" y="8" width="201" height="1" rx="0.5"></rect>
                </g>
                <rect id="Label-Copy" fill="#C5CFD6" x="57" y="3" width="6" height="7" rx="3"></rect>
                <rect id="Label-Copy-10" fill="#C5CFD6" x="46" y="0" width="8" height="24" rx="3"></rect>
                <rect id="Label-Copy-11" fill="#C5CFD6" x="69" y="12" width="3" height="14" rx="1.5"></rect>
                <rect id="Label-Copy-15" fill="#C5CFD6" x="133" y="12" width="3" height="14" rx="1.5"></rect>
                <rect id="Label-Copy-19" fill="#C5CFD6" x="201" y="5" width="3" height="14" rx="1.5"></rect>
                <rect id="Label-Copy-12" fill="#C5CFD6" x="80" y="12" width="3" height="14" rx="1.5"></rect>
                <rect id="Label-Copy-16" fill="#C5CFD6" x="149" y="12" width="3" height="14" rx="1.5"></rect>
                <rect id="Label-Copy-20" fill="#C5CFD6" x="217" y="0" width="3" height="14" rx="1.5"></rect>
                <rect id="Label-Copy-13" fill="#C5CFD6" x="91" y="8" width="3" height="14" rx="1.5"></rect>
                <rect id="Label-Copy-17" fill="#C5CFD6" x="165" y="0" width="3" height="14" rx="1.5"></rect>
                <rect id="Label-Copy-21" fill="#C5CFD6" x="233" y="9" width="3" height="14" rx="1.5"></rect>
                <rect id="Label-Copy-14" fill="#C5CFD6" x="102" y="5" width="3" height="14" rx="1.5"></rect>
                <rect id="Label-Copy-18" fill="#C5CFD6" x="117" y="5" width="3" height="14" rx="1.5"></rect>
                <rect id="Label-Copy-22" fill="#C5CFD6" x="185" y="5" width="3" height="14" rx="1.5"></rect>
            </g>
        </g>
        <rect id="Label" fill="#AFB9C5" x="24.7142857" y="28" width="236.571429" height="12" rx="3"></rect>
        <rect id="Label" fill="#C5CFD6" x="86.4285714" y="47" width="113.142857" height="5" rx="2.5"></rect>
    </g>
</svg>